<svg id="Outline" height="512" viewBox="0 0 512 512" width="512" xmlns="http://www.w3.org/2000/svg"><path d="m216 488h1.136a199.992 199.992 0 0 0 188.5-136.292 24.143 24.143 0 0 0 -3.268-21.732 23.714 23.714 0 0 0 -19.468-9.976h-22.9a24.028 24.028 0 0 1 -24-24v-16a24.028 24.028 0 0 1 24-24h22.91a24.111 24.111 0 0 0 19.516-10 23.6 23.6 0 0 0 3.281-21.5 198.685 198.685 0 0 0 -25.533-50.731l107.426-107.421a24 24 0 1 0 -33.936-33.948l-105.504 105.5a199.9 199.9 0 1 0 -132.16 350.1zm248.982-444.288a7.986 7.986 0 0 1 11.3 0 8.01 8.01 0 0 1 0 11.316l-130.172 130.177-11.31-11.316zm-164.132 186.745-11.307-11.307 33.938-33.95 11.319 11.319zm-25.079-2.45 16.222 16.222-5.462 21.847a23.9 23.9 0 0 1 -17.886 17.566l-41.972 9.685 9.685-41.971a23.9 23.9 0 0 1 17.566-17.887zm-190-69.989a184 184 0 0 1 251.059-8.786l-19 19-43.678 43.689-24.1 6.025a39.827 39.827 0 0 0 -29.274 29.811l-12.573 54.443a8 8 0 0 0 9.595 9.6l54.444-12.564a39.827 39.827 0 0 0 29.81-29.274l6.025-24.1 43.689-43.678 16.9-16.9a182.645 182.645 0 0 1 21.868 44.3 7.765 7.765 0 0 1 -1.092 7.072 7.964 7.964 0 0 1 -6.534 3.344h-22.91a40.045 40.045 0 0 0 -40 40v16a40.045 40.045 0 0 0 40 40h22.9a7.888 7.888 0 0 1 6.475 3.316 8 8 0 0 1 1.091 7.3 183.989 183.989 0 0 1 -173.421 125.384c-.351 0-.693 0-1.043 0a184 184 0 0 1 -130.235-313.982z"/><path d="m128 288a32 32 0 1 0 -32 32 32.036 32.036 0 0 0 32-32zm-48 0a16 16 0 1 1 16 16 16.019 16.019 0 0 1 -16-16z"/><path d="m128 231.984a31.9 31.9 0 0 0 22.627-9.356 32.039 32.039 0 1 0 -22.627 9.356zm-11.314-43.3a16 16 0 1 1 0 22.627 15.948 15.948 0 0 1 0-22.624z"/><path d="m304 407.984a31.9 31.9 0 0 0 22.627-9.356 32.039 32.039 0 1 0 -22.627 9.356zm-11.314-43.3a16 16 0 1 1 0 22.627 15.948 15.948 0 0 1 0-22.624z"/><path d="m216 200a32 32 0 1 0 -32-32 32.036 32.036 0 0 0 32 32zm0-48a16 16 0 1 1 -16 16 16.019 16.019 0 0 1 16-16z"/><path d="m216 440a32 32 0 1 0 -32-32 32.036 32.036 0 0 0 32 32zm0-48a16 16 0 1 1 -16 16 16.019 16.019 0 0 1 16-16z"/><path d="m105.372 353.373a32 32 0 0 0 45.255 45.255 32 32 0 0 0 -45.256-45.254zm33.942 33.94a15.992 15.992 0 1 1 0-22.627 16.018 16.018 0 0 1 0 22.627z"/></svg>